<svg xmlns="http://www.w3.org/2000/svg" width="11037" height="2593" viewBox="0 0 11037 2593" fill="none">
<path d="M5 2416.33C263.666 2416.33 567.473 2444.36 812.754 2374.28C940.81 2337.69 1076.65 2281.48 1211.87 2252.08C1346.66 2222.78 1480.38 2189.24 1611.78 2160.04C1704.62 2139.41 1812.11 2142.38 1897.43 2094.98C1947.91 2066.93 1961.7 2015.01 1961.7 1959.29C1961.7 1848.73 1920.46 1809.01 1868.87 1717.28C1849.82 1683.42 1815.5 1664.23 1801.42 1627.62C1788.81 1594.83 1777.88 1563.22 1764.92 1530.82C1724.11 1428.78 1821.18 1348.28 1897.43 1303.09C2108.24 1178.17 2332.89 1124.59 2568.71 1080.92C2778.55 1042.06 3064.17 1086.33 3253.47 965.865C3340.99 910.174 3402.38 815.76 3468.5 738.138C3519.41 678.385 3570.87 619.405 3621.64 559.607C3686.79 482.886 3769.73 438.92 3846.99 377.109C3998.6 255.818 4185.99 170.114 4377.03 138.274C4724.68 80.3324 5078.74 54.2355 5429.17 20.0466C5624.63 0.977345 5849.12 -0.132363 6044.91 17.6662C6134.21 25.7847 6207.07 111.143 6257.56 180.328C6402.85 379.429 6374.99 658.534 6374.99 891.279C6374.99 1016.97 6449.5 1016.65 6560.66 1016.65C6678.63 1016.65 6796.59 1016.65 6914.55 1016.65C7039.33 1016.65 7088.21 1032.65 7177.98 1113.45C7215.19 1146.94 7260.59 1144.55 7289.07 1194.38C7317.57 1244.26 7317.64 1274 7317.64 1334.04C7317.64 1440.27 7261.01 1547.04 7214.48 1630.79C7189.2 1676.31 7093.58 1703.32 7049.44 1719.66C7014.72 1732.52 6992.29 1755.44 6953.43 1767.27C6906.79 1781.47 6863.8 1807.16 6817.75 1823.61C6724.37 1856.96 6628.29 1882.07 6535.27 1916.44C6408.42 1963.33 6402.43 1925.59 6295.64 1859.31C6101.74 1738.96 5855.07 1658.13 5632.3 1616.51C5442.55 1581.06 5241.62 1541.96 5126.86 1731.57C5067.82 1829.1 5074.32 2005.9 5099.09 2113.23C5136.39 2274.85 5256.87 2400.05 5410.13 2456C5648.45 2543.01 5972.51 2578.86 6194.87 2430.61C6307.46 2355.56 6316.18 2206.27 6360.71 2091.01C6404.88 1976.68 6399.52 1890.19 6303.58 1802.98C6054.42 1576.47 5709.34 1559.76 5397.43 1503.05C5227.52 1472.15 5127.55 1619.11 5103.85 1767.27C5093.31 1833.15 5093.45 1893.36 5089.57 1959.29C5085.39 2030.35 4719.72 2002.14 4676.17 2002.14C4499.75 2002.14 4323.34 2002.14 4146.92 2002.14C4101.87 2002.14 4109.81 1980.65 4100.9 1945.01C4082.98 1873.32 4039.36 1805.15 3997.75 1745.05C3907.15 1614.19 3739.6 1579.51 3590.7 1610.16C3259.44 1678.36 2996.36 2158.35 3255.06 2437.75C3381.55 2574.37 3541.63 2587.72 3721.62 2587.72C3839.72 2587.72 4049.54 2574.86 4123.91 2459.18C4174.7 2380.18 4161.21 2261.98 4161.21 2173.53C4161.21 2012.03 4128.58 1868.14 4039.8 1731.57C3948.68 1591.37 3806.88 1516.53 3639.89 1516.53C3545.88 1516.53 3374.33 1581.92 3346.31 1679.99C3323.49 1759.87 3321.64 1841.79 3303.46 1923.59C3273.65 2057.76 3101.75 1982.29 3001.15 2013.25C2914.21 2040 2786.46 2016.42 2696.46 2016.42C2593.79 2016.42 2490.63 1993.14 2390.18 1987.86C2291.76 1982.68 2180.6 1916.93 2090.24 1876.77C1973.87 1825.05 1867.63 1813.48 1776.03 1716.49C1705.46 1641.77 1693.82 1536.92 1707.79 1435.6C1740 1202.11 2067.9 1060.27 2272.74 1027.76C2426.07 1003.42 2566.56 930.045 2718.67 902.387C2830.34 882.083 2936.68 873.822 3050.34 873.822C3179.24 873.822 3290.26 916.67 3418.52 916.67C3453.92 916.67 3464.25 911.542 3491.51 887.311C3545 839.772 3615.8 818.157 3672.43 773.845C3788.98 682.628 3924.88 593.179 4052.5 517.553C4144.26 463.174 4262.15 373.935 4372.27 373.935C4458.82 373.935 4486.28 461.473 4511.13 531.042C4535.31 598.764 4577.64 870.05 4509.54 923.017C4463.68 958.682 4313.22 931.375 4261.18 930.952C4128.28 929.872 3997.04 904.045 3864.45 902.387C3728.17 900.684 3625.61 930.158 3497.07 958.724C3442.98 970.743 3490.68 930.203 3507.38 913.496C3576.66 844.221 3643.14 768.359 3718.45 705.606C3840.57 603.836 3986.09 543.799 4118.36 459.63C4190.91 413.46 4277.18 387.69 4357.99 362.826C4422.91 342.85 4458.17 305.713 4475.42 374.728C4517.76 544.086 4546.83 706.405 4546.83 880.963C4546.83 931.021 4529.87 973.8 4589.68 973.8C4680.66 973.8 4771.65 973.8 4862.63 973.8C5026.35 973.8 5190.07 973.8 5353.79 973.8C5463.74 973.8 5566.98 933.957 5675.15 930.952C5773.2 928.229 5805.94 810.29 5817.97 723.063C5835.69 594.635 5864.93 426.323 5746.56 334.261C5516.41 155.257 5289.65 217.284 5035.61 327.914C4914.96 380.455 4804.07 449.639 4696.8 523.901C4626.25 572.745 4601.99 627.025 4564.29 702.432C4528.09 774.823 4513.55 879.301 4518.27 959.517C4521.11 1007.85 5141.71 959.517 5221.28 959.517C5456.2 959.517 5696.58 938.626 5921.12 1013.47C6025.41 1048.23 6139.81 1059.49 6249.62 1059.49C6330.21 1059.49 6397.24 1028.55 6474.97 1017.44C6566.2 1004.41 6652.61 1002.36 6746.34 1002.36C6834.41 1002.36 6922.49 1002.36 7010.56 1002.36C7047.21 1002.36 7106.99 990.959 7135.14 1013.47C7177.05 1047 7232.25 1043.04 7247.02 1109.48C7258.35 1160.47 7260.51 1205.06 7260.51 1259.45C7260.51 1311.02 7254.91 1366.28 7261.3 1417.35C7272.88 1510.03 7374.77 1553.42 7374.77 1645.08C7374.77 1727.83 7404.7 1850.14 7439.83 1923.59C7518.07 2087.18 7690.91 2139.29 7858.78 2159.25C8087.21 2186.4 8323.05 2176.71 8552.28 2166.39C8756.41 2157.19 8962.37 2153.41 9164.84 2123.54C9389.35 2090.41 9603.24 2009.48 9831.35 1984.68C10230.6 1941.29 10627.9 1859.31 11031.1 1859.31" stroke="white" stroke-width="10" stroke-linecap="round"/>
</svg>