<svg width="3000" height="3000" viewBox="0 0 3000 3000" fill="none" xmlns="http://www.w3.org/2000/svg">
<g clip-path="url(#clip0_152_3)">
<rect width="3000" height="3000" fill="#010101"/>
<path d="M0.523438 1443.16C100.155 1446.85 250.696 1493.37 328.277 1403.54C371.044 1354.02 376.325 1285.66 388.936 1224.01C403.523 1152.7 466.595 1128.37 533.245 1115.41C609.024 1100.68 686.414 1094.43 762.184 1079.7C806.455 1071.09 852.833 1057.06 886.926 1026.87C929.521 989.154 963.915 944.408 1000.91 901.637C1102.63 784.018 1251.05 756.35 1400.33 756.35C1467.06 756.35 1518.9 765.919 1576.68 801.355C1611.59 822.767 1642.46 849.846 1676.96 871.797C1714.79 895.872 1744.36 935.283 1775.77 966.699C1809.37 1000.29 1803.92 1053.11 1843.77 1077.74C1905.48 1115.89 1992.44 1101.6 2061.46 1105.14C2095.79 1106.9 2170.76 1099.48 2198.43 1127.15C2248.98 1177.7 2216.37 1246.82 2243.68 1304.48C2256.04 1330.58 2301.26 1337.39 2326.11 1341.9C2385.42 1352.69 2447.42 1360.32 2507.59 1363.92C2602.84 1369.6 2697.54 1371.64 2792.3 1360.49C2841.58 1354.69 2889.48 1350.71 2939.3 1350.71C2950.31 1350.71 2961.31 1350.71 2972.32 1350.71C2986.5 1350.71 2996.79 1354.66 2989.93 1337.5" stroke="white" stroke-width="3" stroke-linecap="round"/>
</g>
<defs>
<clipPath id="clip0_152_3">
<rect width="3000" height="3000" fill="white"/>
</clipPath>
</defs>
</svg>
