{
	"header": {
		"keySignatures": [
			{
				"key": "C",
				"scale": "major",
				"ticks": 0
			}
		],
		"meta": [],
		"name": "Beat Machine",
		"ppq": 480,
		"tempos": [
			{
				"bpm": 96,
				"ticks": 0
			}
		],
		"timeSignatures": [
			{
				"ticks": 0,
				"timeSignature": [4, 4],
				"measures": 0
			}
		]
	},
	"tracks": [
		{
			"channel": 0,
			"controlChanges": {},
			"pitchBends": [],
			"instrument": {
				"family": "piano",
				"number": 0,
				"name": "acoustic grand piano"
			},
			"name": "Beat Machine",
			"notes": [
				{
					"duration": 0.10546875,
					"durationTicks": 81,
					"midi": 42,
					"name": "F#2",
					"ticks": 0,
					"time": 0,
					"velocity": 0.7716535433070866
				},
				{
					"duration": 0.08854166666666669,
					"durationTicks": 68,
					"midi": 42,
					"name": "F#2",
					"ticks": 262,
					"time": 0.32,
					"velocity": 0.7716535433070866
				},
				{
					"duration": 0.06901041666666663,
					"durationTicks": 53,
					"midi": 42,
					"name": "F#2",
					"ticks": 402,
					"time": 0.5234375,
					"velocity": 0.7716535433070866
				},
				{
					"duration": 0.10026041666666663,
					"durationTicks": 77,
					"midi": 42,
					"name": "F#2",
					"ticks": 480,
					"time": 0.625,
					"velocity": 0.7716535433070866
				},
				{
					"duration": 0.06901041666666663,
					"durationTicks": 53,
					"midi": 42,
					"name": "F#2",
					"ticks": 722,
					"time": 0.9401041666666666,
					"velocity": 0.7716535433070866
				},
				{
					"duration": 0.10026041666666652,
					"durationTicks": 77,
					"midi": 42,
					"name": "F#2",
					"ticks": 866,
					"time": 1.1276041666666667,
					"velocity": 0.7716535433070866
				},
				{
					"duration": 0.10546875,
					"durationTicks": 81,
					"midi": 42,
					"name": "F#2",
					"ticks": 960,
					"time": 1.25,
					"velocity": 0.7716535433070866
				},
				{
					"duration": 0.08854166666666652,
					"durationTicks": 68,
					"midi": 42,
					"name": "F#2",
					"ticks": 1222,
					"time": 1.5911458333333335,
					"velocity": 0.7716535433070866
				},
				{
					"duration": 0.06901041666666652,
					"durationTicks": 53,
					"midi": 42,
					"name": "F#2",
					"ticks": 1362,
					"time": 1.7734375,
					"velocity": 0.7716535433070866
				},
				{
					"duration": 0.10026041666666674,
					"durationTicks": 77,
					"midi": 42,
					"name": "F#2",
					"ticks": 1440,
					"time": 1.875,
					"velocity": 0.7716535433070866
				},
				{
					"duration": 0.06901041666666652,
					"durationTicks": 53,
					"midi": 42,
					"name": "F#2",
					"ticks": 1682,
					"time": 2.190104166666667,
					"velocity": 0.7716535433070866
				},
				{
					"duration": 0.10026041666666652,
					"durationTicks": 77,
					"midi": 42,
					"name": "F#2",
					"ticks": 1826,
					"time": 2.3776041666666665,
					"velocity": 0.7716535433070866
				},
				{
					"duration": 0.10546875,
					"durationTicks": 81,
					"midi": 42,
					"name": "F#2",
					"ticks": 1920,
					"time": 2.5,
					"velocity": 0.7716535433070866
				},
				{
					"duration": 0.08854166666666652,
					"durationTicks": 68,
					"midi": 42,
					"name": "F#2",
					"ticks": 2182,
					"time": 2.8411458333333335,
					"velocity": 0.7716535433070866
				},
				{
					"duration": 0.06901041666666696,
					"durationTicks": 53,
					"midi": 42,
					"name": "F#2",
					"ticks": 2322,
					"time": 3.0234375,
					"velocity": 0.7716535433070866
				},
				{
					"duration": 0.10026041666666652,
					"durationTicks": 77,
					"midi": 42,
					"name": "F#2",
					"ticks": 2400,
					"time": 3.125,
					"velocity": 0.7716535433070866
				},
				{
					"duration": 0.06901041666666652,
					"durationTicks": 53,
					"midi": 42,
					"name": "F#2",
					"ticks": 2642,
					"time": 3.4401041666666665,
					"velocity": 0.7716535433070866
				},
				{
					"duration": 0.10026041666666696,
					"durationTicks": 77,
					"midi": 42,
					"name": "F#2",
					"ticks": 2786,
					"time": 3.6276041666666665,
					"velocity": 0.7716535433070866
				},
				{
					"duration": 0.10546875,
					"durationTicks": 81,
					"midi": 42,
					"name": "F#2",
					"ticks": 2880,
					"time": 3.75,
					"velocity": 0.7716535433070866
				},
				{
					"duration": 0.08854166666666696,
					"durationTicks": 68,
					"midi": 42,
					"name": "F#2",
					"ticks": 3142,
					"time": 4.091145833333333,
					"velocity": 0.7716535433070866
				},
				{
					"duration": 0.06901041666666696,
					"durationTicks": 53,
					"midi": 42,
					"name": "F#2",
					"ticks": 3282,
					"time": 4.2734375,
					"velocity": 0.7716535433070866
				},
				{
					"duration": 0.10026041666666607,
					"durationTicks": 77,
					"midi": 42,
					"name": "F#2",
					"ticks": 3360,
					"time": 4.375,
					"velocity": 0.7716535433070866
				},
				{
					"duration": 0.06901041666666696,
					"durationTicks": 53,
					"midi": 42,
					"name": "F#2",
					"ticks": 3602,
					"time": 4.690104166666666,
					"velocity": 0.7716535433070866
				},
				{
					"duration": 0.10026041666666785,
					"durationTicks": 77,
					"midi": 42,
					"name": "F#2",
					"ticks": 3746,
					"time": 4.877604166666666,
					"velocity": 0.7716535433070866
				}
			],
			"endOfTrackTicks": 3840
		}
	]
}
