{
	"header": {
		"keySignatures": [
			{
				"key": "C",
				"scale": "major",
				"ticks": 0
			}
		],
		"meta": [],
		"name": "Beat Machine",
		"ppq": 480,
		"tempos": [
			{
				"bpm": 107.99991360006912,
				"ticks": 0
			},
			{
				"bpm": 107.99991360006912,
				"ticks": 1920
			},
			{
				"bpm": 107.99991360006912,
				"ticks": 5280
			}
		],
		"timeSignatures": [
			{
				"ticks": 0,
				"timeSignature": [4, 4],
				"measures": 0
			}
		]
	},
	"tracks": [
		{
			"channel": 0,
			"controlChanges": {},
			"pitchBends": [],
			"instrument": {
				"family": "piano",
				"number": 0,
				"name": "acoustic grand piano"
			},
			"name": "Beat Machine",
			"notes": [
				{
					"duration": 0.11574083333333335,
					"durationTicks": 100,
					"midi": 36,
					"name": "C2",
					"ticks": 0,
					"time": 0,
					"velocity": 0.7716535433070866
				},
				{
					"duration": 0.16898161666666667,
					"durationTicks": 146,
					"midi": 42,
					"name": "F#2",
					"ticks": 0,
					"time": 0,
					"velocity": 0.7716535433070866
				},
				{
					"duration": 0.16435198333333328,
					"durationTicks": 142,
					"midi": 36,
					"name": "C2",
					"ticks": 280,
					"time": 0.3240743333333334,
					"velocity": 0.7716535433070866
				},
				{
					"duration": 0.1689816166666666,
					"durationTicks": 146,
					"midi": 42,
					"name": "F#2",
					"ticks": 280,
					"time": 0.3240743333333334,
					"velocity": 0.7716535433070866
				},
				{
					"duration": 0.15277790000000002,
					"durationTicks": 132,
					"midi": 38,
					"name": "D2",
					"ticks": 549,
					"time": 0.6354171750000001,
					"velocity": 0.7716535433070866
				},
				{
					"duration": 0.16898161666666678,
					"durationTicks": 146,
					"midi": 42,
					"name": "F#2",
					"ticks": 549,
					"time": 0.6354171750000001,
					"velocity": 0.7716535433070866
				},
				{
					"duration": 0.16898161666666667,
					"durationTicks": 146,
					"midi": 42,
					"name": "F#2",
					"ticks": 840,
					"time": 0.9722230000000001,
					"velocity": 0.7716535433070866
				},
				{
					"duration": 0.16782420833333322,
					"durationTicks": 145,
					"midi": 42,
					"name": "F#2",
					"ticks": 1113,
					"time": 1.2881954750000002,
					"velocity": 0.7716535433070866
				},
				{
					"duration": 0.11574083333333318,
					"durationTicks": 100,
					"midi": 36,
					"name": "C2",
					"ticks": 1124,
					"time": 1.3009269666666667,
					"velocity": 0.7716535433070866
				},
				{
					"duration": 0.16898161666666667,
					"durationTicks": 146,
					"midi": 42,
					"name": "F#2",
					"ticks": 1400,
					"time": 1.6203716666666668,
					"velocity": 0.7716535433070866
				},
				{
					"duration": 0.11574083333333318,
					"durationTicks": 100,
					"midi": 36,
					"name": "C2",
					"ticks": 1420,
					"time": 1.6435198333333336,
					"velocity": 0.7716535433070866
				},
				{
					"duration": 0.09722229999999987,
					"durationTicks": 84,
					"midi": 36,
					"name": "C2",
					"ticks": 1600,
					"time": 1.8518533333333336,
					"velocity": 0.7716535433070866
				},
				{
					"duration": 0.16898161666666667,
					"durationTicks": 146,
					"midi": 42,
					"name": "F#2",
					"ticks": 1680,
					"time": 1.9444460000000001,
					"velocity": 0.7716535433070866
				},
				{
					"duration": 0.16898161666666667,
					"durationTicks": 146,
					"midi": 42,
					"name": "F#2",
					"ticks": 1940,
					"time": 2.245372166666667,
					"velocity": 0.7716535433070866
				},
				{
					"duration": 0.16898161666666667,
					"durationTicks": 146,
					"midi": 42,
					"name": "F#2",
					"ticks": 2220,
					"time": 2.5694465,
					"velocity": 0.7716535433070866
				},
				{
					"duration": 0.11574083333333363,
					"durationTicks": 100,
					"midi": 36,
					"name": "C2",
					"ticks": 2240,
					"time": 2.592594666666667,
					"velocity": 0.7716535433070866
				},
				{
					"duration": 0.16898161666666667,
					"durationTicks": 146,
					"midi": 42,
					"name": "F#2",
					"ticks": 2500,
					"time": 2.8935208333333335,
					"velocity": 0.7716535433070866
				},
				{
					"duration": 0.16435198333333334,
					"durationTicks": 142,
					"midi": 36,
					"name": "C2",
					"ticks": 2520,
					"time": 2.916669,
					"velocity": 0.7716535433070866
				},
				{
					"duration": 0.16898161666666667,
					"durationTicks": 146,
					"midi": 42,
					"name": "F#2",
					"ticks": 2769,
					"time": 3.2048636750000004,
					"velocity": 0.7716535433070866
				},
				{
					"duration": 0.11921305833333351,
					"durationTicks": 103,
					"midi": 38,
					"name": "D2",
					"ticks": 2780,
					"time": 3.217595166666667,
					"velocity": 0.7716535433070866
				},
				{
					"duration": 0.16898161666666667,
					"durationTicks": 146,
					"midi": 42,
					"name": "F#2",
					"ticks": 3060,
					"time": 3.5416695000000002,
					"velocity": 0.7716535433070866
				},
				{
					"duration": 0.16782420833333367,
					"durationTicks": 145,
					"midi": 42,
					"name": "F#2",
					"ticks": 3333,
					"time": 3.8576419750000004,
					"velocity": 0.7716535433070866
				},
				{
					"duration": 0.11574083333333407,
					"durationTicks": 100,
					"midi": 36,
					"name": "C2",
					"ticks": 3364,
					"time": 3.8935216333333336,
					"velocity": 0.7716535433070866
				},
				{
					"duration": 0.16898161666666667,
					"durationTicks": 146,
					"midi": 42,
					"name": "F#2",
					"ticks": 3620,
					"time": 4.189818166666667,
					"velocity": 0.7716535433070866
				},
				{
					"duration": 0.11574083333333363,
					"durationTicks": 100,
					"midi": 36,
					"name": "C2",
					"ticks": 3660,
					"time": 4.2361145,
					"velocity": 0.7716535433070866
				},
				{
					"duration": 0.09722229999999943,
					"durationTicks": 84,
					"midi": 36,
					"name": "C2",
					"ticks": 3840,
					"time": 4.444448,
					"velocity": 0.7716535433070866
				},
				{
					"duration": 0.16898161666666667,
					"durationTicks": 146,
					"midi": 42,
					"name": "F#2",
					"ticks": 3900,
					"time": 4.513892500000001,
					"velocity": 0.7716535433070866
				},
				{
					"duration": 0.16898161666666667,
					"durationTicks": 146,
					"midi": 42,
					"name": "F#2",
					"ticks": 4160,
					"time": 4.8148186666666675,
					"velocity": 0.7716535433070866
				}
			],
			"endOfTrackTicks": 4100
		}
	]
}
