{
	"header": {
		"keySignatures": [
			{
				"key": "C",
				"scale": "major",
				"ticks": 0
			}
		],
		"meta": [],
		"name": "Beat Machine",
		"ppq": 480,
		"tempos": [
			{
				"bpm": 183.99997546666995,
				"ticks": 0
			}
		],
		"timeSignatures": [
			{
				"ticks": 0,
				"timeSignature": [4, 4],
				"measures": 0
			}
		]
	},
	"tracks": [
		{
			"channel": 0,
			"controlChanges": {},
			"pitchBends": [],
			"instrument": {
				"family": "piano",
				"number": 0,
				"name": "acoustic grand piano"
			},
			"name": "Beat Machine",
			"notes": [
				{
					"duration": 0.09986414375,
					"durationTicks": 147,
					"midi": 44,
					"name": "G#2",
					"ticks": 0,
					"time": 0,
					"velocity": 0.7716535433070866
				},
				{
					"duration": 0.13790762708333332,
					"durationTicks": 203,
					"midi": 53,
					"name": "F3",
					"ticks": 0,
					"time": 0,
					"velocity": 0.7716535433070866
				},
				{
					"duration": 0.09986414375,
					"durationTicks": 147,
					"midi": 44,
					"name": "G#2",
					"ticks": 240,
					"time": 0.16304349999999998,
					"velocity": 0.7716535433070866
				},
				{
					"duration": 0.07744566250000001,
					"durationTicks": 114,
					"midi": 44,
					"name": "G#2",
					"ticks": 480,
					"time": 0.32608699999999996,
					"velocity": 0.7716535433070866
				},
				{
					"duration": 0.11413045,
					"durationTicks": 168,
					"midi": 52,
					"name": "E3",
					"ticks": 480,
					"time": 0.32608699999999996,
					"velocity": 0.7716535433070866
				},
				{
					"duration": 0.11480979791666668,
					"durationTicks": 169,
					"midi": 44,
					"name": "G#2",
					"ticks": 720,
					"time": 0.4891304999999999,
					"velocity": 0.7716535433070866
				},
				{
					"duration": 0.13858697500000006,
					"durationTicks": 204,
					"midi": 53,
					"name": "F3",
					"ticks": 720,
					"time": 0.4891304999999999,
					"velocity": 0.7716535433070866
				},
				{
					"duration": 0.06793479166666672,
					"durationTicks": 100,
					"midi": 44,
					"name": "G#2",
					"ticks": 960,
					"time": 0.6521739999999999,
					"velocity": 0.7716535433070866
				},
				{
					"duration": 0.08763588124999988,
					"durationTicks": 129,
					"midi": 44,
					"name": "G#2",
					"ticks": 1200,
					"time": 0.8152174999999999,
					"velocity": 0.7716535433070866
				},
				{
					"duration": 0.15353262916666655,
					"durationTicks": 226,
					"midi": 53,
					"name": "F3",
					"ticks": 1200,
					"time": 0.8152174999999999,
					"velocity": 0.7716535433070866
				},
				{
					"duration": 0.09986414375000008,
					"durationTicks": 147,
					"midi": 44,
					"name": "G#2",
					"ticks": 1440,
					"time": 0.9782609999999998,
					"velocity": 0.7716535433070866
				},
				{
					"duration": 0.11073371041666658,
					"durationTicks": 163,
					"midi": 52,
					"name": "E3",
					"ticks": 1440,
					"time": 0.9782609999999998,
					"velocity": 0.7716535433070866
				},
				{
					"duration": 0.10054349166666654,
					"durationTicks": 148,
					"midi": 44,
					"name": "G#2",
					"ticks": 1680,
					"time": 1.1413045,
					"velocity": 0.7716535433070866
				},
				{
					"duration": 0.11277175416666663,
					"durationTicks": 166,
					"midi": 44,
					"name": "G#2",
					"ticks": 1920,
					"time": 1.3043479999999998,
					"velocity": 0.7716535433070866
				},
				{
					"duration": 0.1399456708333331,
					"durationTicks": 206,
					"midi": 53,
					"name": "F3",
					"ticks": 1920,
					"time": 1.3043479999999998,
					"velocity": 0.7716535433070866
				},
				{
					"duration": 0.10054349166666676,
					"durationTicks": 148,
					"midi": 44,
					"name": "G#2",
					"ticks": 2160,
					"time": 1.4673914999999997,
					"velocity": 0.7716535433070866
				},
				{
					"duration": 0.07472827083333344,
					"durationTicks": 110,
					"midi": 44,
					"name": "G#2",
					"ticks": 2400,
					"time": 1.6304349999999999,
					"velocity": 0.7716535433070866
				},
				{
					"duration": 0.11073371041666658,
					"durationTicks": 163,
					"midi": 52,
					"name": "E3",
					"ticks": 2400,
					"time": 1.6304349999999999,
					"velocity": 0.7716535433070866
				},
				{
					"duration": 0.1216032770833333,
					"durationTicks": 179,
					"midi": 44,
					"name": "G#2",
					"ticks": 2640,
					"time": 1.7934784999999998,
					"velocity": 0.7716535433070866
				},
				{
					"duration": 0.13586958333333343,
					"durationTicks": 200,
					"midi": 53,
					"name": "F3",
					"ticks": 2640,
					"time": 1.7934784999999998,
					"velocity": 0.7716535433070866
				},
				{
					"duration": 0.11480979791666668,
					"durationTicks": 169,
					"midi": 44,
					"name": "G#2",
					"ticks": 2880,
					"time": 1.9565219999999997,
					"velocity": 0.7716535433070866
				},
				{
					"duration": 0.11345110208333331,
					"durationTicks": 167,
					"midi": 44,
					"name": "G#2",
					"ticks": 3120,
					"time": 2.1195654999999998,
					"velocity": 0.7716535433070866
				},
				{
					"duration": 0.11480979791666668,
					"durationTicks": 169,
					"midi": 53,
					"name": "F3",
					"ticks": 3120,
					"time": 2.1195654999999998,
					"velocity": 0.7716535433070866
				},
				{
					"duration": 0.08763588124999977,
					"durationTicks": 129,
					"midi": 44,
					"name": "G#2",
					"ticks": 3360,
					"time": 2.282609,
					"velocity": 0.7716535433070866
				},
				{
					"duration": 0.1501358895833329,
					"durationTicks": 221,
					"midi": 52,
					"name": "E3",
					"ticks": 3360,
					"time": 2.282609,
					"velocity": 0.7716535433070866
				},
				{
					"duration": 0.10054349166666698,
					"durationTicks": 148,
					"midi": 44,
					"name": "G#2",
					"ticks": 3600,
					"time": 2.4456524999999996,
					"velocity": 0.7716535433070866
				},
				{
					"duration": 0.07676631458333372,
					"durationTicks": 113,
					"midi": 44,
					"name": "G#2",
					"ticks": 3840,
					"time": 2.6086959999999997,
					"velocity": 0.7716535433070866
				},
				{
					"duration": 0.15013588958333335,
					"durationTicks": 221,
					"midi": 53,
					"name": "F3",
					"ticks": 3840,
					"time": 2.6086959999999997,
					"velocity": 0.7716535433070866
				},
				{
					"duration": 0.0638587041666665,
					"durationTicks": 94,
					"midi": 44,
					"name": "G#2",
					"ticks": 4080,
					"time": 2.7717395,
					"velocity": 0.7716535433070866
				},
				{
					"duration": 0.08831522916666712,
					"durationTicks": 130,
					"midi": 44,
					"name": "G#2",
					"ticks": 4320,
					"time": 2.9347829999999995,
					"velocity": 0.7716535433070866
				},
				{
					"duration": 0.11209240624999994,
					"durationTicks": 165,
					"midi": 52,
					"name": "E3",
					"ticks": 4320,
					"time": 2.9347829999999995,
					"velocity": 0.7716535433070866
				},
				{
					"duration": 0.09986414375000008,
					"durationTicks": 147,
					"midi": 44,
					"name": "G#2",
					"ticks": 4560,
					"time": 3.0978264999999996,
					"velocity": 0.7716535433070866
				},
				{
					"duration": 0.11345110208333331,
					"durationTicks": 167,
					"midi": 53,
					"name": "F3",
					"ticks": 4560,
					"time": 3.0978264999999996,
					"velocity": 0.7716535433070866
				},
				{
					"duration": 0.07336957499999963,
					"durationTicks": 108,
					"midi": 44,
					"name": "G#2",
					"ticks": 4800,
					"time": 3.2608699999999997,
					"velocity": 0.7716535433070866
				},
				{
					"duration": 0.11209240625000039,
					"durationTicks": 165,
					"midi": 44,
					"name": "G#2",
					"ticks": 5040,
					"time": 3.4239134999999994,
					"velocity": 0.7716535433070866
				},
				{
					"duration": 0.11480979791666668,
					"durationTicks": 169,
					"midi": 53,
					"name": "F3",
					"ticks": 5040,
					"time": 3.4239134999999994,
					"velocity": 0.7716535433070866
				},
				{
					"duration": 0.09239131666666678,
					"durationTicks": 136,
					"midi": 44,
					"name": "G#2",
					"ticks": 5280,
					"time": 3.5869569999999995,
					"velocity": 0.7716535433070866
				},
				{
					"duration": 0.15149458541666672,
					"durationTicks": 223,
					"midi": 52,
					"name": "E3",
					"ticks": 5280,
					"time": 3.5869569999999995,
					"velocity": 0.7716535433070866
				},
				{
					"duration": 0.07336957499999963,
					"durationTicks": 108,
					"midi": 44,
					"name": "G#2",
					"ticks": 5520,
					"time": 3.7500004999999996,
					"velocity": 0.7716535433070866
				},
				{
					"duration": 0.07404892291666654,
					"durationTicks": 109,
					"midi": 44,
					"name": "G#2",
					"ticks": 5760,
					"time": 3.9130439999999993,
					"velocity": 0.7716535433070866
				},
				{
					"duration": 0.14130436666666668,
					"durationTicks": 208,
					"midi": 53,
					"name": "F3",
					"ticks": 5760,
					"time": 3.9130439999999993,
					"velocity": 0.7716535433070866
				},
				{
					"duration": 0.07676631458333283,
					"durationTicks": 113,
					"midi": 44,
					"name": "G#2",
					"ticks": 6000,
					"time": 4.0760875,
					"velocity": 0.7716535433070866
				},
				{
					"duration": 0.08763588124999977,
					"durationTicks": 129,
					"midi": 44,
					"name": "G#2",
					"ticks": 6240,
					"time": 4.2391309999999995,
					"velocity": 0.7716535433070866
				},
				{
					"duration": 0.14877719374999998,
					"durationTicks": 219,
					"midi": 52,
					"name": "E3",
					"ticks": 6240,
					"time": 4.2391309999999995,
					"velocity": 0.7716535433070866
				},
				{
					"duration": 0.07404892291666698,
					"durationTicks": 109,
					"midi": 44,
					"name": "G#2",
					"ticks": 6480,
					"time": 4.402174499999999,
					"velocity": 0.7716535433070866
				},
				{
					"duration": 0.11277175416666729,
					"durationTicks": 166,
					"midi": 53,
					"name": "F3",
					"ticks": 6480,
					"time": 4.402174499999999,
					"velocity": 0.7716535433070866
				},
				{
					"duration": 0.09171196874999943,
					"durationTicks": 135,
					"midi": 44,
					"name": "G#2",
					"ticks": 6720,
					"time": 4.565218,
					"velocity": 0.7716535433070866
				},
				{
					"duration": 0.07336957500000008,
					"durationTicks": 108,
					"midi": 44,
					"name": "G#2",
					"ticks": 6960,
					"time": 4.7282614999999995,
					"velocity": 0.7716535433070866
				},
				{
					"duration": 0.12092392916666661,
					"durationTicks": 178,
					"midi": 53,
					"name": "F3",
					"ticks": 6960,
					"time": 4.7282614999999995,
					"velocity": 0.7716535433070866
				},
				{
					"duration": 0.08899457708333358,
					"durationTicks": 131,
					"midi": 44,
					"name": "G#2",
					"ticks": 7200,
					"time": 4.891304999999999,
					"velocity": 0.7716535433070866
				},
				{
					"duration": 0.1419837145833336,
					"durationTicks": 209,
					"midi": 52,
					"name": "E3",
					"ticks": 7200,
					"time": 4.891304999999999,
					"velocity": 0.7716535433070866
				},
				{
					"duration": 0.09171196874999943,
					"durationTicks": 135,
					"midi": 44,
					"name": "G#2",
					"ticks": 7440,
					"time": 5.0543485,
					"velocity": 0.7716535433070866
				}
			],
			"endOfTrackTicks": 7680
		}
	]
}
